<?xml version="1.0" encoding="utf-8"?>
<!-- Generator: Adobe Illustrator 15.1.0, SVG Export Plug-In . SVG Version: 6.00 Build 0)  -->
<!DOCTYPE svg PUBLIC "-//W3C//DTD SVG 1.1//EN" "http://www.w3.org/Graphics/SVG/1.1/DTD/svg11.dtd">
<svg version="1.1" id="Layer_1" xmlns="http://www.w3.org/2000/svg" xmlns:xlink="http://www.w3.org/1999/xlink" x="0px" y="0px"
	 width="154.551px" height="17.273px" viewBox="0 0 154.551 17.273" enable-background="new 0 0 154.551 17.273"
	 xml:space="preserve">
<path fill="#E30613" d="M11.206,6.601c0,4.495-2.271,6.741-6.812,6.741H0V0h4.395C8.936,0,11.206,2.2,11.206,6.601z M8.666,6.601
	c0-0.674-0.066-1.277-0.197-1.811c-0.133-0.533-0.362-0.984-0.69-1.354S7.011,2.785,6.46,2.588S5.215,2.294,4.377,2.294h-1.89v8.754
	h1.89c0.832,0,1.523-0.102,2.074-0.304s0.99-0.493,1.318-0.874s0.56-0.847,0.694-1.398S8.666,7.298,8.666,6.601z"/>
<path fill="#E30613" d="M14.52,14.712c0.563,0,1.058-0.582,1.485-1.748l-3.498-9.273h2.575l2.057,6.074l2.065-6.074h2.584
	l-3.551,9.396c-0.217,0.568-0.427,1.088-0.628,1.56c-0.203,0.472-0.432,0.878-0.686,1.218c-0.256,0.34-0.551,0.604-0.889,0.795
	c-0.336,0.19-0.751,0.285-1.243,0.285c-0.223,0-0.452-0.018-0.69-0.053c-0.236-0.035-0.487-0.094-0.751-0.176v-2.311
	c0.316,0.123,0.563,0.205,0.743,0.246C14.271,14.693,14.414,14.712,14.52,14.712z"/>
<path fill="#E30613" d="M25.611,13.341h-2.373V0.299h2.373V13.341z"/>
<path fill="#E30613" d="M33.627,12.841c-0.785,0.475-1.693,0.711-2.725,0.711c-0.486,0-0.938-0.07-1.354-0.211
	S28.772,13,28.468,12.74s-0.545-0.572-0.721-0.936s-0.264-0.766-0.264-1.205c0-2.332,1.922-3.498,5.766-3.498h0.378
	c-0.006-0.264-0.026-0.495-0.062-0.694s-0.112-0.368-0.233-0.505C33.213,5.764,33.038,5.66,32.81,5.59s-0.536-0.105-0.923-0.105
	c-1.143,0-1.737,0.507-1.784,1.521h-2.399c0.135-2.361,1.562-3.542,4.28-3.542c0.621,0,1.179,0.056,1.675,0.167
	c0.494,0.111,0.915,0.308,1.261,0.589s0.612,0.665,0.8,1.151S36,6.472,36,7.216v6.125h-2.373V12.841z M33.627,9.044h-0.694
	c-2.021,0-3.032,0.493-3.032,1.477c0,0.328,0.133,0.578,0.4,0.751c0.266,0.173,0.619,0.259,1.059,0.259
	c0.223,0,0.442-0.021,0.659-0.065s0.425-0.108,0.624-0.193s0.383-0.192,0.549-0.321c0.168-0.129,0.313-0.277,0.436-0.447V9.044z"/>
<path fill="#E30613" d="M41.15,4.263c0.686-0.533,1.433-0.8,2.241-0.8c2.279,0,3.419,1.228,3.419,3.683v6.196h-2.399V7.216
	c0-0.592-0.097-1.017-0.29-1.274s-0.513-0.387-0.958-0.387c-0.645,0-1.315,0.39-2.013,1.169v6.618h-2.382v-9.65h2.382V4.263z"/>
<path fill="#EA5B0C" d="M56.031,13.88c-0.967,0-1.848-0.165-2.645-0.496s-1.479-0.797-2.044-1.397s-1.005-1.324-1.318-2.171
	s-0.47-1.789-0.47-2.826c0-1.055,0.156-2.005,0.47-2.852s0.753-1.567,1.318-2.162s1.242-1.053,2.03-1.375s1.656-0.483,2.605-0.483
	c0.797,0,1.541,0.114,2.232,0.343s1.3,0.552,1.824,0.971s0.949,0.924,1.274,1.516s0.521,1.254,0.585,1.986h-2.559
	c-0.035-0.41-0.136-0.775-0.303-1.094s-0.395-0.59-0.682-0.813s-0.628-0.393-1.023-0.51s-0.836-0.176-1.322-0.176
	c-0.58,0-1.109,0.103-1.587,0.308s-0.888,0.505-1.23,0.901s-0.609,0.882-0.8,1.459s-0.285,1.238-0.285,1.982
	c0,0.732,0.095,1.387,0.285,1.964s0.457,1.066,0.8,1.468s0.755,0.709,1.235,0.923s1.01,0.32,1.59,0.32
	c0.832,0,1.543-0.121,2.132-0.364s1.085-0.622,1.489-1.138V8.766H56.33V6.472h5.766v7.198H60.18l-0.316-0.957
	c-0.463,0.387-1.012,0.678-1.647,0.874S56.852,13.88,56.031,13.88z"/>
<path fill="#EA5B0C" d="M68.986,13.88c-0.703,0-1.346-0.112-1.929-0.338s-1.084-0.554-1.503-0.984s-0.742-0.959-0.971-1.586
	s-0.344-1.34-0.344-2.136c0-0.779,0.111-1.481,0.334-2.105s0.535-1.153,0.937-1.586s0.882-0.768,1.441-1.002
	s1.179-0.352,1.858-0.352c0.703,0,1.336,0.114,1.898,0.343s1.043,0.558,1.441,0.989s0.705,0.959,0.919,1.586
	s0.321,1.336,0.321,2.127v0.765h-6.645c0.059,0.381,0.154,0.711,0.289,0.992s0.299,0.516,0.492,0.703s0.415,0.328,0.664,0.422
	s0.514,0.141,0.795,0.141c0.211,0,0.422-0.035,0.633-0.105s0.402-0.174,0.572-0.312s0.309-0.306,0.417-0.505
	s0.165-0.432,0.171-0.695h2.514c-0.088,0.586-0.258,1.105-0.51,1.557s-0.566,0.83-0.944,1.138s-0.81,0.542-1.296,0.703
	S69.537,13.88,68.986,13.88z M70.824,7.588c-0.152-0.598-0.403-1.043-0.752-1.336s-0.77-0.439-1.262-0.439
	c-0.475,0-0.891,0.146-1.248,0.439s-0.611,0.738-0.764,1.336H70.824z"/>
<path fill="#EA5B0C" d="M79.578,3.791c0.703,0,1.336,0.114,1.898,0.343s1.043,0.558,1.441,0.989s0.704,0.959,0.918,1.586
	s0.32,1.336,0.32,2.127c0,0.796-0.109,1.509-0.329,2.136s-0.528,1.155-0.927,1.586s-0.879,0.759-1.441,0.984
	s-1.189,0.338-1.881,0.338c-0.68,0-1.301-0.111-1.863-0.334S76.67,13,76.269,12.572s-0.712-0.955-0.932-1.582
	s-0.329-1.346-0.329-2.154c0-0.791,0.107-1.5,0.324-2.127s0.526-1.156,0.928-1.586s0.883-0.76,1.445-0.989
	S78.893,3.791,79.578,3.791z M79.578,11.859c0.316,0,0.604-0.063,0.865-0.188s0.484-0.315,0.672-0.567s0.333-0.566,0.436-0.944
	s0.154-0.819,0.154-1.323c0-0.498-0.052-0.936-0.154-1.314s-0.248-0.694-0.436-0.949s-0.411-0.445-0.672-0.571
	s-0.549-0.189-0.865-0.189s-0.605,0.063-0.866,0.189s-0.485,0.316-0.673,0.571s-0.332,0.571-0.435,0.949s-0.153,0.816-0.153,1.314
	c0,0.503,0.051,0.945,0.153,1.323s0.247,0.692,0.435,0.944s0.412,0.441,0.673,0.567S79.262,11.859,79.578,11.859z"/>
<path fill="#EA5B0C" d="M91.707,6.384c-0.27-0.082-0.518-0.146-0.743-0.193s-0.433-0.07-0.62-0.07c-0.316,0-0.609,0.082-0.879,0.246
	s-0.535,0.419-0.799,0.765v6.539h-2.373V4.02h2.373v0.554c0.586-0.521,1.227-0.782,1.924-0.782c0.1,0,0.246,0.013,0.439,0.04
	s0.42,0.06,0.678,0.101V6.384z"/>
<path fill="#EA5B0C" d="M100.943,12.597c0,3.117-1.424,4.676-4.271,4.676c-0.621,0-1.179-0.078-1.674-0.236
	s-0.917-0.387-1.266-0.686s-0.617-0.648-0.805-1.047s-0.281-0.82-0.281-1.266H95.1c0,0.814,0.51,1.223,1.529,1.223
	c0.287,0,0.543-0.033,0.769-0.098s0.419-0.176,0.58-0.334s0.29-0.371,0.387-0.641s0.159-0.607,0.188-1.012
	c-0.639,0.469-1.344,0.703-2.117,0.703c-0.662,0-1.247-0.118-1.754-0.355s-0.934-0.572-1.279-1.006s-0.605-0.957-0.781-1.569
	s-0.264-1.294-0.264-2.043c0-0.791,0.106-1.503,0.32-2.136s0.507-1.17,0.879-1.613s0.812-0.781,1.318-1.015s1.053-0.352,1.639-0.352
	c0.768,0,1.453,0.173,2.057,0.519V4.02h2.373V12.597z M98.57,6.674c-0.598-0.574-1.248-0.861-1.951-0.861
	c-0.557,0-0.998,0.256-1.326,0.769s-0.492,1.288-0.492,2.325c0,0.984,0.153,1.722,0.461,2.214s0.74,0.738,1.297,0.738
	c0.703,0,1.373-0.418,2.012-1.256V6.674z"/>
<path fill="#EA5B0C" d="M107.887,13.88c-0.703,0-1.346-0.112-1.929-0.338s-1.084-0.554-1.503-0.984s-0.742-0.959-0.971-1.586
	s-0.344-1.34-0.344-2.136c0-0.779,0.111-1.481,0.334-2.105s0.535-1.153,0.937-1.586s0.882-0.768,1.441-1.002
	s1.179-0.352,1.858-0.352c0.703,0,1.336,0.114,1.898,0.343s1.043,0.558,1.441,0.989s0.705,0.959,0.919,1.586
	s0.321,1.336,0.321,2.127v0.765h-6.645c0.059,0.381,0.154,0.711,0.289,0.992s0.299,0.516,0.492,0.703s0.415,0.328,0.664,0.422
	s0.514,0.141,0.795,0.141c0.211,0,0.422-0.035,0.633-0.105s0.402-0.174,0.572-0.312s0.309-0.306,0.417-0.505
	s0.165-0.432,0.171-0.695h2.514c-0.088,0.586-0.258,1.105-0.51,1.557s-0.566,0.83-0.944,1.138s-0.81,0.542-1.296,0.703
	S108.438,13.88,107.887,13.88z M109.725,7.588c-0.152-0.598-0.403-1.043-0.752-1.336s-0.77-0.439-1.262-0.439
	c-0.475,0-0.891,0.146-1.248,0.439s-0.611,0.738-0.764,1.336H109.725z"/>
<path fill="#F28E14" d="M124.211,3.224h-6.82V6.3h5.933v2.285h-5.933v5.686h-2.487V0.93h9.308V3.224z"/>
<path fill="#F28E14" d="M128.756,3.716h-2.373V1.229h2.373V3.716z M128.756,14.271h-2.373v-9.65h2.373V14.271z"/>
<path fill="#F28E14" d="M135.32,14.482c-0.703,0-1.346-0.112-1.928-0.338c-0.584-0.226-1.086-0.554-1.504-0.984
	c-0.42-0.431-0.742-0.959-0.971-1.586s-0.344-1.34-0.344-2.137c0-0.779,0.111-1.48,0.334-2.104s0.535-1.153,0.938-1.586
	c0.4-0.434,0.881-0.768,1.441-1.002c0.559-0.234,1.178-0.352,1.857-0.352c0.703,0,1.336,0.114,1.898,0.343s1.043,0.558,1.441,0.989
	s0.705,0.959,0.92,1.586c0.213,0.627,0.32,1.336,0.32,2.126v0.766h-6.645c0.059,0.381,0.154,0.711,0.289,0.992
	s0.299,0.516,0.492,0.703s0.414,0.328,0.664,0.422c0.248,0.094,0.514,0.141,0.795,0.141c0.211,0,0.422-0.035,0.633-0.105
	s0.402-0.174,0.572-0.312s0.309-0.306,0.418-0.505c0.107-0.199,0.164-0.432,0.17-0.695h2.514c-0.088,0.586-0.258,1.105-0.51,1.557
	s-0.566,0.83-0.943,1.138c-0.379,0.308-0.811,0.542-1.297,0.703S135.871,14.482,135.32,14.482z M137.158,8.189
	c-0.152-0.598-0.404-1.043-0.752-1.336c-0.35-0.293-0.77-0.439-1.262-0.439c-0.475,0-0.891,0.146-1.248,0.439
	s-0.611,0.738-0.764,1.336H137.158z"/>
<path fill="#F28E14" d="M144.162,14.271h-2.373V1.229h2.373V14.271z"/>
<path fill="#F28E14" d="M152.178,13.761c-0.627,0.48-1.338,0.721-2.135,0.721c-0.662,0-1.248-0.118-1.754-0.355
	c-0.508-0.237-0.934-0.572-1.279-1.006s-0.605-0.957-0.781-1.569s-0.264-1.294-0.264-2.044c0-0.791,0.105-1.502,0.32-2.135
	c0.213-0.633,0.506-1.17,0.879-1.613c0.371-0.442,0.811-0.781,1.318-1.015c0.506-0.234,1.053-0.352,1.639-0.352
	c0.768,0,1.453,0.173,2.057,0.519V1.229h2.373v13.042h-2.373V13.761z M152.178,7.275c-0.598-0.574-1.248-0.861-1.951-0.861
	c-0.557,0-0.998,0.256-1.326,0.769s-0.492,1.288-0.492,2.324c0,0.984,0.154,1.723,0.461,2.215c0.309,0.492,0.74,0.738,1.297,0.738
	c0.703,0,1.373-0.418,2.012-1.256V7.275z"/>
</svg>
